<svg width="89" height="89" xmlns="http://www.w3.org/2000/svg"><g fill="#DEDEDE"><path d="M85.846 89h-62.3c-.77 0-1.401-.628-1.401-1.396v-7.258c0-.768.63-1.396 1.401-1.396h62.3c.771 0 1.402.628 1.402 1.396v7.258c0 .768-.63 1.396-1.402 1.396zm-60.898-2.792h59.497v-4.466H24.948v4.466zm62.65-55.554H1.402A1.402 1.402 0 0 1 0 29.258v-5.862C0 22.628.63 22 1.402 22h86.196c.771 0 1.402.628 1.402 1.396v5.862c0 .768-.63 1.396-1.402 1.396zM2.803 27.863h83.394v-3.071H2.803v3.07z"/><path d="M63.454 24.782a1.405 1.405 0 0 1-1.398-1.403V9.215c0-.772.63-1.403 1.398-1.403.77 0 1.399.631 1.399 1.403v14.164c0 .771-.63 1.403-1.399 1.403zm-52.03 0c-.56 0-1.119-.351-1.328-.912a1.4 1.4 0 0 1 .839-1.823L59.188 4.096c.7-.28 1.539.07 1.819.841a1.4 1.4 0 0 1-.84 1.824L11.915 24.71c-.14.07-.28.07-.49.07zM66.601 82H55.552c-.77 0-1.399-.631-1.399-1.402V29.269c0-.771.63-1.402 1.399-1.402h11.05c.769 0 1.398.63 1.398 1.402v51.329c0 .841-.63 1.402-1.399 1.402zm-9.65-2.805h8.252V30.672H56.95v48.523z"/><path d="M72.571 82H66.43c-.787 0-1.43-.63-1.43-1.399V29.399c0-.77.643-1.399 1.429-1.399h6.142c.786 0 1.429.63 1.429 1.399v51.202c0 .84-.643 1.399-1.429 1.399zm-4.714-2.798h3.286V30.798h-3.286v48.404z"/><path d="M67.304 82H56.308a1.402 1.402 0 0 1-1.392-1.403c0-.771.626-1.403 1.392-1.403h10.996c.766 0 1.392.632 1.392 1.403 0 .772-.626 1.403-1.392 1.403zm18.374-57.237a1.37 1.37 0 0 1-.975-.421L66.956 6.385c-.557-.561-.557-1.473 0-1.964.557-.561 1.392-.561 1.949 0l17.677 17.957c.557.56.557 1.473 0 1.964-.208.35-.556.42-.904.42zM12.392 45.034A1.402 1.402 0 0 1 11 43.631v-14.38c0-.77.626-1.402 1.392-1.402.766 0 1.392.631 1.392 1.403v14.38c0 .77-.626 1.402-1.392 1.402z"/><path d="M18.687 50H5.367a1.394 1.394 0 0 1-1.268-.806c-.211-.47-.07-1.075.282-1.478l6.624-6.313a1.41 1.41 0 0 1 1.974 0l6.624 6.313c.422.403.493.94.282 1.478-.141.47-.635.806-1.198.806zM8.75 47.313h6.484l-3.242-3.09-3.242 3.09z"/><path d="M22.584 60H1.416A1.43 1.43 0 0 1 0 58.564V48.436C0 47.646.637 47 1.416 47h21.168A1.43 1.43 0 0 1 24 48.436v10.128A1.43 1.43 0 0 1 22.584 60zM2.832 57.127h18.336v-7.254H2.832v7.254z"/><path d="M15.621 58c-.42 0-.699-.28-.699-.701v-6.944c0-.42.28-.701.7-.701.419 0 .698.28.698.701V57.3c0 .42-.35.701-.699.701zM8.7 58c-.42 0-.7-.28-.7-.701v-6.944c0-.42.28-.701.7-.701.419 0 .698.28.698.701V57.3c0 .42-.28.701-.699.701zm47.545-3.296c-.21 0-.35-.07-.49-.21a.68.68 0 0 1 0-.983l10.558-10.1-10.627-14.307c-.21-.28-.14-.771.14-.982.28-.21.769-.14.978.14l11.046 14.73c.21.28.21.701-.07.912l-11.047 10.59c-.14.14-.35.21-.489.21z"/><path d="M55.71 80a.65.65 0 0 1-.497-.21.672.672 0 0 1 0-.982l10.731-10.096-10.802-14.233c-.213-.28-.142-.772.142-.982.285-.21.782-.14.995.14l11.229 14.724c.213.28.213.701-.071.912L56.208 79.86c-.142.07-.355.14-.497.14zm8.031-69.623c-2.914 0-5.259-2.314-5.259-5.189 0-2.874 2.345-5.188 5.26-5.188C66.654 0 69 2.314 69 5.188c0 2.875-2.345 5.189-5.259 5.189zm0-7.572c-1.35 0-2.416 1.051-2.416 2.383 0 1.333 1.066 2.384 2.416 2.384 1.35 0 2.416-1.051 2.416-2.384 0-1.332-1.066-2.383-2.416-2.383z"/></g></svg>