<svg width="13" height="9" xmlns="http://www.w3.org/2000/svg"><path d="M11.9124572,0 L1.08757237,0 C0.487706522,0 0,0.498208987 0,1.11176533 L0,7.88932617 C0,8.50234446 0.487706522,9 1.08757237,9 L11.9124572,9 C12.5144105,9 13,8.50234446 13,7.88932617 L13,1.11176533 C13,0.498193619 12.5144105,0 11.9124572,0 L11.9124572,0 L11.9124572,0 Z M11.6522079,0.795916791 L7.33524351,4.7041985 C6.95864519,5.04722738 6.67984577,5.21751964 6.50000001,5.21751964 C6.32015424,5.21751964 6.04138444,5.04722738 5.66422354,4.7041985 L1.34782169,0.795916791 L11.6522079,0.795916791 L11.6522079,0.795916791 L11.6522079,0.795916791 Z M0.808802559,7.64102878 L0.808802559,1.51797931 L4.18045161,4.53721155 L0.808802559,7.64102878 L0.808802559,7.64102878 L0.808802559,7.64102878 Z M1.3758467,8.20351438 L4.7596651,5.13537903 L5.31402175,5.63221978 C5.63616891,5.91978108 6.03341959,6.06725906 6.49998521,6.06725906 C6.96918603,6.06725906 7.36326854,5.91978109 7.68701459,5.63221978 L8.24137124,5.13537903 L11.6251896,8.20351438 L1.3758467,8.20351438 L1.3758467,8.20351438 L1.3758467,8.20351438 Z M12.1912122,7.64102878 L8.82006656,4.53721155 L12.1912122,1.51797931 L12.1912122,7.64102878 L12.1912122,7.64102878 L12.1912122,7.64102878 Z" fill="#1565C0"/></svg>