<svg width="64" height="64" xmlns="http://www.w3.org/2000/svg"><path d="M34.972568,61.9999242 C33.9561799,62.004999 32.9548014,61.7551651 32.0603813,61.2733626 L24.0518681,56.8534461 C22.1014284,55.7884449 20.8909308,53.744089 20.8969993,51.5253276 L20.8969993,26.156218 C20.8969993,25.7750671 20.7171789,25.4161598 20.4116349,25.1874692 L1.90711561,10.4140498 L1.6644334,10.1718626 C-0.034342144,8.41600532 -0.459036,5.87303972 0.511692849,3.63280807 C1.4824217,1.39257643 3.60589116,0 6.03271334,0 L55.9039094,0 C58.3307316,0 60.5148716,1.39257643 61.4856004,3.63280807 C62.4563293,5.87303972 62.0316354,8.35545856 60.3935304,10.1718626 L60.1508482,10.4140498 L41.4643173,25.3691096 C41.1814926,25.610028 41.024972,25.9670597 41.0396235,26.3378584 L41.0396235,55.9452441 C41.0396235,59.2891516 38.3233102,61.9999242 34.972568,61.9999242 Z M5.06198443,6.78124169 L23.4451626,21.4335676 C24.9007773,22.5699844 25.7511223,24.3118693 25.7506436,26.156218 L25.7506436,51.5253276 C25.7355553,51.9725771 25.9688618,52.391672 26.3573492,52.61517 L34.3658624,56.9745397 C34.7477212,57.1949019 35.2193323,57.1911036 35.5975774,56.9646194 C35.9758225,56.7381353 36.2011155,56.3246441 36.1859791,55.8846973 L36.1859791,26.3378584 C36.1797369,24.5057824 37.0050833,22.7694119 38.4307896,21.6152079 L56.8746383,6.78124169 C57.150402,6.41430671 57.1947594,5.92337883 56.9892173,5.51313305 C56.7836751,5.10288728 56.3635156,4.84374409 55.9039094,4.84374406 L6.03271334,4.84374406 C5.57310712,4.84374406 5.15294762,5.10288725 4.94740546,5.51313303 C4.74186331,5.92337881 4.78622072,6.4143067 5.06198443,6.78124169 Z" transform="translate(1 1)" fill="#FFF"/></svg>