<svg width="14" height="12" xmlns="http://www.w3.org/2000/svg"><g fill="none"><path d="M8.34874477,2.60638821 L5.6541841,2.60638821 L5.6541841,1.08796069 C5.6541841,0.493857494 6.13305439,0.0117936118 6.72322176,0.0117936118 L7.27970711,0.0117936118 C7.86987448,0.0117936118 8.34874477,0.493857494 8.34874477,1.08796069 L8.34874477,2.60638821 Z M6.47426778,1.78083538 L7.52866109,1.78083538 L7.52866109,1.08796069 C7.52866109,0.949385749 7.41736402,0.837346437 7.27970711,0.837346437 L6.72322176,0.837346437 C6.58556485,0.837346437 6.47426778,0.949385749 6.47426778,1.08796069 L6.47426778,1.78083538 Z" fill="#333"/><path d="M12.9309623,11.9882064 L1.06903766,11.9882064 C0.478870293,11.9882064 0,11.5061425 0,10.9120393 L0,2.85847666 C0,2.26437346 0.478870293,1.78230958 1.06903766,1.78230958 L12.9309623,1.78230958 C13.5211297,1.78230958 14,2.26437346 14,2.85847666 L14,10.9120393 C14,11.5046683 13.5211297,11.9882064 12.9309623,11.9882064 Z M1.06903766,2.60786241 C0.931380753,2.60786241 0.820083682,2.71990172 0.820083682,2.85847666 L0.820083682,10.9120393 C0.820083682,11.0506143 0.931380753,11.1626536 1.06903766,11.1626536 L12.9309623,11.1626536 C13.0686192,11.1626536 13.1799163,11.0506143 13.1799163,10.9120393 L13.1799163,2.85847666 C13.1799163,2.71990172 13.0686192,2.60786241 12.9309623,2.60786241 L1.06903766,2.60786241 Z" fill="#222"/><path d="M8.41025105,5.66977887 L12.1548117,5.66977887 L12.1548117,6.4953317 L8.41025105,6.4953317 L8.41025105,5.66977887 Z M8.41025105,7.97542998 L12.1548117,7.97542998 L12.1548117,8.8009828 L8.41025105,8.8009828 L8.41025105,7.97542998 Z M4.51046025,7.92825553 C3.47656904,7.92825553 2.63598326,7.08206388 2.63598326,6.04127764 C2.63598326,5.0004914 3.47656904,4.15429975 4.51046025,4.15429975 C5.54435146,4.15429975 6.38493724,5.0004914 6.38493724,6.04127764 C6.38493724,7.08206388 5.54435146,7.92825553 4.51046025,7.92825553 Z M4.51046025,4.97985258 C3.9290795,4.97985258 3.45606695,5.45601966 3.45606695,6.04127764 C3.45606695,6.62653563 3.9290795,7.1027027 4.51046025,7.1027027 C5.091841,7.1027027 5.56485356,6.62653563 5.56485356,6.04127764 C5.56485356,5.45601966 5.091841,4.97985258 4.51046025,4.97985258 Z" fill="#222"/><path d="M7.11715481,9.72678133 L6.29707113,9.72678133 C6.29707113,8.73464373 5.4960251,7.92825553 4.51046025,7.92825553 C3.5248954,7.92825553 2.72384937,8.73464373 2.72384937,9.72678133 L1.90376569,9.72678133 C1.90376569,8.28058968 3.07384937,7.1027027 4.51046025,7.1027027 C5.94707113,7.1027027 7.11715481,8.27911548 7.11715481,9.72678133 Z" fill="#222"/></g></svg>