<svg width="16" height="16" xmlns="http://www.w3.org/2000/svg"><g fill="#999" fill-rule="evenodd"><path d="M15.3684623,9.14285714 C15.0205681,9.14285714 14.7369246,9.42014554 14.7369246,9.76024512 L14.7369246,14.7636921 L1.26307542,14.7636921 L1.26307542,9.7617771 C1.26307542,9.42167752 0.979431929,9.14438912 0.631537708,9.14438912 C0.283643487,9.14438912 0,9.42167752 0,9.7617771 L0,15.382612 C0,15.7227116 0.283643487,16 0.631537708,16 L15.3684623,16 C15.7163565,16 16,15.7227116 16,15.382612 L16,9.7617771 C16,9.42014554 15.7163565,9.14285714 15.3684623,9.14285714 Z"/><path d="M12.6939213,6.81730284 C12.4779371,6.81730284 12.259856,6.89888455 12.0962951,7.06413982 L9.46464291,9.68939759 L9.46464291,0.843011059 C9.46464291,0.378622833 9.08509784,-2.09183754e-10 8.61957848,0 C8.15405912,0 7.77451406,0.378622833 7.77451406,0.843011059 L7.77451406,9.6956731 L5.13447409,7.06413982 C4.9688163,6.89888455 4.75283209,6.81730284 4.53684788,6.81730284 C4.32086367,6.81730284 4.10278253,6.89888455 3.93922168,7.06413982 C3.61000303,7.39255852 3.61000303,7.92806927 3.93922168,8.25648797 L8.01775841,12.3251145 C8.34697706,12.6535332 8.88379217,12.6535332 9.21301082,12.3251145 L13.2915476,8.25648797 C13.6207662,7.92806927 13.6207662,7.39255852 13.2915476,7.06413982 C13.1258898,6.89888455 12.9099056,6.81730284 12.6939213,6.81730284 Z" transform="matrix(1 0 0 -1 0 12.571)"/></g></svg>